G04 #@! TF.GenerationSoftware,KiCad,Pcbnew,(6.0.9-0)*
G04 #@! TF.CreationDate,2022-11-14T21:54:49+09:00*
G04 #@! TF.ProjectId,MEZ80RAM,4d455a38-3052-4414-9d2e-6b696361645f,A*
G04 #@! TF.SameCoordinates,PX5f5e100PY8f0d180*
G04 #@! TF.FileFunction,Legend,Top*
G04 #@! TF.FilePolarity,Positive*
%FSLAX46Y46*%
G04 Gerber Fmt 4.6, Leading zero omitted, Abs format (unit mm)*
G04 Created by KiCad (PCBNEW (6.0.9-0)) date 2022-11-14 21:54:49*
%MOMM*%
%LPD*%
G01*
G04 APERTURE LIST*
%ADD10C,0.200000*%
%ADD11C,0.150000*%
%ADD12C,0.120000*%
G04 APERTURE END LIST*
D10*
X9982857Y54759286D02*
X10154285Y54702143D01*
X10440000Y54702143D01*
X10554285Y54759286D01*
X10611428Y54816429D01*
X10668571Y54930715D01*
X10668571Y55045000D01*
X10611428Y55159286D01*
X10554285Y55216429D01*
X10440000Y55273572D01*
X10211428Y55330715D01*
X10097142Y55387858D01*
X10040000Y55445000D01*
X9982857Y55559286D01*
X9982857Y55673572D01*
X10040000Y55787858D01*
X10097142Y55845000D01*
X10211428Y55902143D01*
X10497142Y55902143D01*
X10668571Y55845000D01*
X11697142Y55502143D02*
X11697142Y54702143D01*
X11182857Y55502143D02*
X11182857Y54873572D01*
X11240000Y54759286D01*
X11354285Y54702143D01*
X11525714Y54702143D01*
X11640000Y54759286D01*
X11697142Y54816429D01*
X12268571Y55502143D02*
X12268571Y54302143D01*
X12268571Y55445000D02*
X12382857Y55502143D01*
X12611428Y55502143D01*
X12725714Y55445000D01*
X12782857Y55387858D01*
X12840000Y55273572D01*
X12840000Y54930715D01*
X12782857Y54816429D01*
X12725714Y54759286D01*
X12611428Y54702143D01*
X12382857Y54702143D01*
X12268571Y54759286D01*
X13811428Y54759286D02*
X13697142Y54702143D01*
X13468571Y54702143D01*
X13354285Y54759286D01*
X13297142Y54873572D01*
X13297142Y55330715D01*
X13354285Y55445000D01*
X13468571Y55502143D01*
X13697142Y55502143D01*
X13811428Y55445000D01*
X13868571Y55330715D01*
X13868571Y55216429D01*
X13297142Y55102143D01*
X14382857Y54702143D02*
X14382857Y55502143D01*
X14382857Y55273572D02*
X14440000Y55387858D01*
X14497142Y55445000D01*
X14611428Y55502143D01*
X14725714Y55502143D01*
X15125714Y54702143D02*
X15125714Y55902143D01*
X15525714Y55045000D01*
X15925714Y55902143D01*
X15925714Y54702143D01*
X16497142Y55330715D02*
X16897142Y55330715D01*
X17068571Y54702143D02*
X16497142Y54702143D01*
X16497142Y55902143D01*
X17068571Y55902143D01*
X17468571Y55902143D02*
X18268571Y55902143D01*
X17468571Y54702143D01*
X18268571Y54702143D01*
X18897142Y55387858D02*
X18782857Y55445000D01*
X18725714Y55502143D01*
X18668571Y55616429D01*
X18668571Y55673572D01*
X18725714Y55787858D01*
X18782857Y55845000D01*
X18897142Y55902143D01*
X19125714Y55902143D01*
X19240000Y55845000D01*
X19297142Y55787858D01*
X19354285Y55673572D01*
X19354285Y55616429D01*
X19297142Y55502143D01*
X19240000Y55445000D01*
X19125714Y55387858D01*
X18897142Y55387858D01*
X18782857Y55330715D01*
X18725714Y55273572D01*
X18668571Y55159286D01*
X18668571Y54930715D01*
X18725714Y54816429D01*
X18782857Y54759286D01*
X18897142Y54702143D01*
X19125714Y54702143D01*
X19240000Y54759286D01*
X19297142Y54816429D01*
X19354285Y54930715D01*
X19354285Y55159286D01*
X19297142Y55273572D01*
X19240000Y55330715D01*
X19125714Y55387858D01*
X20097142Y55902143D02*
X20211428Y55902143D01*
X20325714Y55845000D01*
X20382857Y55787858D01*
X20440000Y55673572D01*
X20497142Y55445000D01*
X20497142Y55159286D01*
X20440000Y54930715D01*
X20382857Y54816429D01*
X20325714Y54759286D01*
X20211428Y54702143D01*
X20097142Y54702143D01*
X19982857Y54759286D01*
X19925714Y54816429D01*
X19868571Y54930715D01*
X19811428Y55159286D01*
X19811428Y55445000D01*
X19868571Y55673572D01*
X19925714Y55787858D01*
X19982857Y55845000D01*
X20097142Y55902143D01*
D11*
X36068095Y39277620D02*
X36068095Y38468096D01*
X36115714Y38372858D01*
X36163333Y38325239D01*
X36258571Y38277620D01*
X36449047Y38277620D01*
X36544285Y38325239D01*
X36591904Y38372858D01*
X36639523Y38468096D01*
X36639523Y39277620D01*
X37068095Y39182381D02*
X37115714Y39230000D01*
X37210952Y39277620D01*
X37449047Y39277620D01*
X37544285Y39230000D01*
X37591904Y39182381D01*
X37639523Y39087143D01*
X37639523Y38991905D01*
X37591904Y38849048D01*
X37020476Y38277620D01*
X37639523Y38277620D01*
X14488095Y39287620D02*
X14488095Y38478096D01*
X14535714Y38382858D01*
X14583333Y38335239D01*
X14678571Y38287620D01*
X14869047Y38287620D01*
X14964285Y38335239D01*
X15011904Y38382858D01*
X15059523Y38478096D01*
X15059523Y39287620D01*
X16059523Y38287620D02*
X15488095Y38287620D01*
X15773809Y38287620D02*
X15773809Y39287620D01*
X15678571Y39144762D01*
X15583333Y39049524D01*
X15488095Y39001905D01*
D12*
X35830000Y52130000D02*
X30370000Y52130000D01*
X30370000Y11370000D02*
X43290000Y11370000D01*
X43290000Y11370000D02*
X43290000Y52130000D01*
X43290000Y52130000D02*
X37830000Y52130000D01*
X30370000Y52130000D02*
X30370000Y11370000D01*
X35830000Y52130000D02*
G75*
G03*
X37830000Y52130000I1000000J0D01*
G01*
X8780000Y52130000D02*
X8780000Y1210000D01*
X14240000Y52130000D02*
X8780000Y52130000D01*
X8780000Y1210000D02*
X21700000Y1210000D01*
X21700000Y52130000D02*
X16240000Y52130000D01*
X21700000Y1210000D02*
X21700000Y52130000D01*
X14240000Y52130000D02*
G75*
G03*
X16240000Y52130000I1000000J0D01*
G01*
X41180000Y54450000D02*
X41180000Y53825000D01*
X45220000Y56665000D02*
X45220000Y56040000D01*
X45220000Y54450000D02*
X45220000Y53825000D01*
X41180000Y53825000D02*
X45220000Y53825000D01*
X41180000Y56665000D02*
X41180000Y56040000D01*
X41180000Y56665000D02*
X45220000Y56665000D01*
X3325000Y24650000D02*
X2700000Y24650000D01*
X3325000Y28690000D02*
X3325000Y24650000D01*
X1110000Y28690000D02*
X485000Y28690000D01*
X1110000Y24650000D02*
X485000Y24650000D01*
X3325000Y28690000D02*
X2700000Y28690000D01*
X485000Y28690000D02*
X485000Y24650000D01*
X30255000Y55245000D02*
X31025000Y55245000D01*
X31025000Y56615000D02*
X31025000Y53875000D01*
X38335000Y55245000D02*
X37565000Y55245000D01*
X31025000Y53875000D02*
X37565000Y53875000D01*
X37565000Y53875000D02*
X37565000Y56615000D01*
X37565000Y56615000D02*
X31025000Y56615000D01*
M02*
