G04 #@! TF.GenerationSoftware,KiCad,Pcbnew,(6.0.9-0)*
G04 #@! TF.CreationDate,2022-11-14T21:54:49+09:00*
G04 #@! TF.ProjectId,MEZ80RAM,4d455a38-3052-4414-9d2e-6b696361645f,A*
G04 #@! TF.SameCoordinates,PX5f5e100PY8f0d180*
G04 #@! TF.FileFunction,Soldermask,Top*
G04 #@! TF.FilePolarity,Negative*
%FSLAX46Y46*%
G04 Gerber Fmt 4.6, Leading zero omitted, Abs format (unit mm)*
G04 Created by KiCad (PCBNEW (6.0.9-0)) date 2022-11-14 21:54:49*
%MOMM*%
%LPD*%
G01*
G04 APERTURE LIST*
%ADD10R,1.600000X1.600000*%
%ADD11O,1.600000X1.600000*%
%ADD12C,1.600000*%
%ADD13R,1.700000X1.700000*%
%ADD14O,1.700000X1.700000*%
%ADD15C,0.605000*%
G04 APERTURE END LIST*
D10*
X29210000Y50800000D03*
D11*
X29210000Y48260000D03*
X29210000Y45720000D03*
X29210000Y43180000D03*
X29210000Y40640000D03*
X29210000Y38100000D03*
X29210000Y35560000D03*
X29210000Y33020000D03*
X29210000Y30480000D03*
X29210000Y27940000D03*
X29210000Y25400000D03*
X29210000Y22860000D03*
X29210000Y20320000D03*
X29210000Y17780000D03*
X29210000Y15240000D03*
X29210000Y12700000D03*
X44450000Y12700000D03*
X44450000Y15240000D03*
X44450000Y17780000D03*
X44450000Y20320000D03*
X44450000Y22860000D03*
X44450000Y25400000D03*
X44450000Y27940000D03*
X44450000Y30480000D03*
X44450000Y33020000D03*
X44450000Y35560000D03*
X44450000Y38100000D03*
X44450000Y40640000D03*
X44450000Y43180000D03*
X44450000Y45720000D03*
X44450000Y48260000D03*
X44450000Y50800000D03*
D10*
X7620000Y50800000D03*
D11*
X7620000Y48260000D03*
X7620000Y45720000D03*
X7620000Y43180000D03*
X7620000Y40640000D03*
X7620000Y38100000D03*
X7620000Y35560000D03*
X7620000Y33020000D03*
X7620000Y30480000D03*
X7620000Y27940000D03*
X7620000Y25400000D03*
X7620000Y22860000D03*
X7620000Y20320000D03*
X7620000Y17780000D03*
X7620000Y15240000D03*
X7620000Y12700000D03*
X7620000Y10160000D03*
X7620000Y7620000D03*
X7620000Y5080000D03*
X7620000Y2540000D03*
X22860000Y2540000D03*
X22860000Y5080000D03*
X22860000Y7620000D03*
X22860000Y10160000D03*
X22860000Y12700000D03*
X22860000Y15240000D03*
X22860000Y17780000D03*
X22860000Y20320000D03*
X22860000Y22860000D03*
X22860000Y25400000D03*
X22860000Y27940000D03*
X22860000Y30480000D03*
X22860000Y33020000D03*
X22860000Y35560000D03*
X22860000Y38100000D03*
X22860000Y40640000D03*
X22860000Y43180000D03*
X22860000Y45720000D03*
X22860000Y48260000D03*
X22860000Y50800000D03*
D12*
X41950000Y55245000D03*
X44450000Y55245000D03*
X1905000Y27920000D03*
X1905000Y25420000D03*
X39375000Y55245000D03*
D11*
X29215000Y55245000D03*
D13*
X5085000Y50805000D03*
D14*
X5085000Y48265000D03*
X5085000Y45725000D03*
X5085000Y43185000D03*
X5085000Y40645000D03*
X5085000Y38105000D03*
X5085000Y35565000D03*
X5085000Y33025000D03*
X5085000Y30485000D03*
X5085000Y27945000D03*
X5085000Y25405000D03*
X5085000Y22865000D03*
X5085000Y20325000D03*
X5085000Y17785000D03*
X5085000Y15245000D03*
X5085000Y12705000D03*
X5085000Y10165000D03*
X5085000Y7625000D03*
X5085000Y5085000D03*
X5085000Y2545000D03*
D13*
X25405000Y50800000D03*
D14*
X25405000Y48260000D03*
X25405000Y45720000D03*
X25405000Y43180000D03*
X25405000Y40640000D03*
X25405000Y38100000D03*
X25405000Y35560000D03*
X25405000Y33020000D03*
X25405000Y30480000D03*
X25405000Y27940000D03*
X25405000Y25400000D03*
X25405000Y22860000D03*
X25405000Y20320000D03*
X25405000Y17780000D03*
X25405000Y15240000D03*
X25405000Y12700000D03*
X25405000Y10160000D03*
X25405000Y7620000D03*
X25405000Y5080000D03*
X25405000Y2540000D03*
D15*
X10160000Y43180000D03*
X31750000Y31115000D03*
X31750000Y43180000D03*
X20320000Y40640000D03*
X46355000Y44450000D03*
X1905000Y1905000D03*
X10160000Y40640000D03*
X1905000Y55245000D03*
X15240000Y43180000D03*
X10160000Y12700000D03*
X24130000Y1270000D03*
X46355000Y12700000D03*
X38735000Y35560000D03*
X15240000Y12700000D03*
X34925000Y43180000D03*
X20320000Y12700000D03*
X20320000Y24130000D03*
X41275000Y35560000D03*
X1270000Y40640000D03*
X20320000Y43180000D03*
X1905000Y12700000D03*
X15240000Y1905000D03*
X10160000Y24130000D03*
X15240000Y40640000D03*
M02*
